HIERARCHY
ROOT Hips
{
	OFFSET -8.665500 -1.496397 44.816700
	CHANNELS 6 Xposition Yposition Zposition Zrotation Xrotation Yrotation
	JOINT Chest
	{
		OFFSET -0.698600 0.806100 5.350899
		CHANNELS 6 Xposition Yposition Zposition Zrotation Xrotation Yrotation
		JOINT Chest2
		{
			OFFSET 0.000000 0.000000 4.409100
			CHANNELS 6 Xposition Yposition Zposition Zrotation Xrotation Yrotation
			JOINT Neck
			{
				OFFSET 0.000000 0.000001 10.248299
				CHANNELS 6 Xposition Yposition Zposition Zrotation Xrotation Yrotation
				JOINT Head
				{
					OFFSET 0.000000 0.000000 2.173897
					CHANNELS 6 Xposition Yposition Zposition Zrotation Xrotation Yrotation
					End Site
					{
						OFFSET 0.000000 0.000001 9.966400
					}
				}
			}
			JOINT LeftCollar
			{
				OFFSET 2.100600 -0.520900 6.016098
				CHANNELS 6 Xposition Yposition Zposition Zrotation Xrotation Yrotation
				JOINT LeftShoulder
				{
					OFFSET 5.536700 0.000000 0.000000
					CHANNELS 6 Xposition Yposition Zposition Zrotation Xrotation Yrotation
					JOINT LeftElbow
					{
						OFFSET 0.000000 -0.000001 -12.362099
						CHANNELS 6 Xposition Yposition Zposition Zrotation Xrotation Yrotation
						JOINT LeftWrist
						{
							OFFSET 0.000000 -0.000001 -10.273201
							CHANNELS 6 Xposition Yposition Zposition Zrotation Xrotation Yrotation
							End Site
							{
								OFFSET 0.000000 -0.000000 -2.173901
							}
						}
					}
				}
			}
			JOINT RightCollar
			{
				OFFSET -2.899500 -1.655900 6.981701
				CHANNELS 6 Xposition Yposition Zposition Zrotation Xrotation Yrotation
				JOINT RightShoulder
				{
					OFFSET -4.387501 0.000000 0.000000
					CHANNELS 6 Xposition Yposition Zposition Zrotation Xrotation Yrotation
					JOINT RightElbow
					{
						OFFSET 0.000000 -0.000001 -10.858101
						CHANNELS 6 Xposition Yposition Zposition Zrotation Xrotation Yrotation
						JOINT RightWrist
						{
							OFFSET 0.000000 -0.000001 -12.079601
							CHANNELS 6 Xposition Yposition Zposition Zrotation Xrotation Yrotation
							End Site
							{
								OFFSET 0.000000 0.000000 -2.173901
							}
						}
					}
				}
			}
		}
	}
	JOINT LeftHip
	{
		OFFSET 2.190800 0.073900 -2.522499
		CHANNELS 6 Xposition Yposition Zposition Zrotation Xrotation Yrotation
		JOINT LeftKnee
		{
			OFFSET 0.000000 -0.000002 -20.305000
			CHANNELS 6 Xposition Yposition Zposition Zrotation Xrotation Yrotation
			JOINT LeftAnkle
			{
				OFFSET 0.000000 -0.000001 -16.771700
				CHANNELS 6 Xposition Yposition Zposition Zrotation Xrotation Yrotation
				End Site
				{
					OFFSET 0.000000 -8.738000 0.000001
				}
			}
		}
	}
	JOINT RightHip
	{
		OFFSET -2.029500 0.054300 -2.705200
		CHANNELS 6 Xposition Yposition Zposition Zrotation Xrotation Yrotation
		JOINT RightKnee
		{
			OFFSET 0.000000 -0.000002 -20.030399
			CHANNELS 6 Xposition Yposition Zposition Zrotation Xrotation Yrotation
			JOINT RightAnkle
			{
				OFFSET 0.000000 -0.000001 -17.032700
				CHANNELS 6 Xposition Yposition Zposition Zrotation Xrotation Yrotation
				End Site
				{
					OFFSET 0.000000 -8.823600 0.000001
				}
			}
		}
	}
}
MOTION
Frames: 9
Frame Time: 0.041667
-5.381801 25.936201 43.527695 2935.374227 32.152333 6.359863 -0.698598 0.806100 5.350901 64.814985 -23.121930 25.099547 0.000000 0.000004 4.409103 -2.063685 -2.040183 -0.129000 -0.000001 -0.000002 10.248301 -22.496808 -0.322128 3.837530 0.000000 0.000001 2.173891 -1.386981 -1.742026 -3.582011 2.100600 -0.520903 6.016098 -11.043775 8.671255 2.761755 5.536697 0.000007 0.000007 280.244574 -23.303019 -112.672877 -0.000001 0.000003 -12.362107 -44.062838 47.857954 199.006632 -0.000005 0.000001 -10.273203 2096.505693 167.395082 -177.396528 -2.899500 -1.655901 6.981703 26.666892 21.030820 -1.205213 -4.387498 -0.000005 0.000002 2.320069 -493.769019 761.910935 -0.000008 -0.000001 -10.858109 155.138062 -178.406863 182.721262 0.000001 -0.000003 -12.079598 339.742461 -175.225580 139.104521 2.190801 0.073904 -2.522496 -441.409718 -156.085190 -116.841942 -0.000003 -0.000005 -20.305006 -862.136912 12.859540 71.470123 -0.000002 0.000006 -16.771702 1512.309668 -1.274831 45.545627 -2.029493 0.054302 -2.705194 -82.371125 -42.824723 -121.748778 0.000003 -0.000007 -20.030396 -183.856740 16.496234 -133.903837 -0.000002 -0.000002 -17.032701 411.993705 66.143593 -110.195841
-5.340700 25.929403 43.532394 2935.383625 32.214099 6.297583 -0.698597 0.806100 5.350898 65.070939 -23.130560 25.341325 0.000000 0.000000 4.409095 -2.222205 -1.963095 -0.128570 0.000000 -0.000001 10.248310 -22.506732 -0.946557 3.808478 0.000001 -0.000001 2.173903 -1.337287 -1.966752 -3.399783 2.100603 -0.520903 6.016106 -10.873794 8.407912 2.312237 5.536699 0.000008 -0.000003 280.056771 -23.821909 -112.433909 -0.000000 -0.000002 -12.362105 -44.440588 47.789601 199.224911 0.000008 0.000001 -10.273198 2096.997903 167.122790 -177.316383 -2.899499 -1.655902 6.981707 25.165424 19.798017 0.098768 -4.387503 -0.000000 0.000004 3.849946 -492.660397 762.432215 -0.000001 -0.000005 -10.858103 154.448090 -178.023826 182.328102 0.000008 -0.000002 -12.079600 339.889857 -175.259458 139.084126 2.190801 0.073901 -2.522496 -441.468567 -156.136075 -116.906105 -0.000006 -0.000004 -20.305006 -861.785404 13.384550 71.357459 0.000001 0.000007 -16.771704 1511.787514 -1.227287 45.167515 -2.029497 0.054300 -2.705196 -82.337944 -42.985352 -122.269675 0.000002 -0.000003 -20.030394 -183.966405 16.467682 -133.871189 0.000001 0.000001 -17.032700 412.167192 66.297074 -109.915543
-5.298303 25.929401 43.537796 2935.446135 32.231403 6.198033 -0.698599 0.806105 5.350895 65.056541 -23.249725 25.394088 0.000002 0.000001 4.409102 -2.172217 -1.917186 -0.126515 -0.000002 0.000001 10.248296 -22.576839 -1.516884 3.881781 0.000003 -0.000000 2.173908 -1.228992 -2.079327 -3.445785 2.100598 -0.520898 6.016098 -10.497714 8.243500 2.119160 5.536699 0.000007 0.000006 279.787389 -24.131717 -112.228307 -0.000002 -0.000001 -12.362100 -44.677449 47.627114 199.269745 -0.000010 0.000001 -10.273202 2096.866545 167.543297 -177.040033 -2.899504 -1.655900 6.981704 24.061290 19.156157 1.022928 -4.387504 0.000001 0.000009 5.307106 -492.355880 762.932677 0.000001 -0.000001 -10.858105 154.169814 -177.692753 181.982058 0.000003 -0.000005 -12.079605 340.238934 -175.254485 139.139942 2.190798 0.073907 -2.522501 -441.701941 -156.135939 -116.993149 -0.000003 -0.000008 -20.305008 -861.843050 13.233230 71.301595 -0.000002 0.000005 -16.771702 1511.990343 -1.280423 45.347699 -2.029498 0.054301 -2.705200 -82.284081 -43.036711 -122.689759 0.000002 -0.000005 -20.030392 -183.910944 16.527279 -133.810318 0.000001 -0.000002 -17.032698 412.310352 66.409834 -109.986195
-5.259100 25.934103 43.549301 2935.303412 32.388819 6.308443 -0.698599 0.806094 5.350898 65.316518 -23.574328 25.533335 -0.000004 0.000002 4.409101 -2.152565 -1.900951 -0.124947 0.000002 0.000001 10.248299 -22.526372 -1.971872 4.017013 -0.000001 0.000001 2.173893 -1.196514 -2.150221 -3.444389 2.100601 -0.520900 6.016093 -10.675557 8.293589 2.150388 5.536696 0.000007 0.000009 280.101878 -24.144094 -112.072257 -0.000002 0.000003 -12.362095 -44.495496 47.403565 199.003108 -0.000008 0.000002 -10.273201 2095.388164 167.110291 -176.752783 -2.899500 -1.655900 6.981699 23.898188 19.152868 1.483786 -4.387498 -0.000000 -0.000001 6.412775 -493.082503 763.631596 -0.000000 0.000006 -10.858097 154.543180 -177.328691 181.588079 -0.000004 0.000001 -12.079603 340.401137 -175.246180 139.187057 2.190799 0.073895 -2.522504 -441.863570 -155.919217 -116.905586 -0.000001 -0.000009 -20.305006 -861.416628 13.871710 71.252745 -0.000001 0.000008 -16.771700 1511.593537 -1.286843 45.241571 -2.029496 0.054290 -2.705205 -82.209940 -43.118421 -123.307413 -0.000003 -0.000005 -20.030392 -183.748959 16.820888 -133.785238 -0.000000 0.000003 -17.032700 413.115577 66.789476 -109.502303
-5.223900 25.940504 43.561096 2935.072606 32.489284 6.437266 -0.698599 0.806097 5.350893 65.383960 -24.016035 25.447874 -0.000001 0.000003 4.409100 -1.882414 -1.939885 -0.123743 -0.000002 -0.000001 10.248296 -22.511486 -2.418891 4.339889 -0.000003 0.000000 2.173886 -1.020009 -2.218342 -3.482710 2.100598 -0.520900 6.016101 -11.118467 8.571606 2.702561 5.536700 0.000005 0.000000 280.480543 -23.642404 -112.241291 -0.000002 -0.000003 -12.362096 -44.355993 47.304651 198.761346 0.000003 0.000001 -10.273201 2094.083762 166.943675 -176.661736 -2.899503 -1.655900 6.981705 24.272266 19.969458 1.397699 -4.387501 -0.000001 -0.000003 6.309326 -494.340788 763.491878 0.000000 0.000001 -10.858100 154.153941 -176.956445 181.162872 -0.000003 -0.000008 -12.079596 341.044022 -175.406471 139.048226 2.190802 0.073899 -2.522501 -441.908622 -155.703888 -116.839607 -0.000006 -0.000006 -20.305008 -861.181178 14.003713 71.257683 0.000000 0.000004 -16.771704 1511.606323 -1.288847 45.243402 -2.029497 0.054295 -2.705196 -82.002828 -43.302231 -123.822546 -0.000001 -0.000005 -20.030392 -183.805172 16.873579 -133.574608 0.000004 -0.000000 -17.032700 412.871029 66.718504 -109.444158
-5.186800 25.950903 43.570496 2934.996108 32.470938 6.459609 -0.698601 0.806103 5.350903 65.228525 -24.350480 25.251109 0.000001 0.000000 4.409099 -1.585326 -2.023220 -0.124968 0.000001 0.000001 10.248296 -22.605008 -2.874472 4.593261 0.000001 -0.000001 2.173887 -0.834427 -2.279880 -3.544267 2.100602 -0.520899 6.016104 -11.570130 8.947502 3.302546 5.536697 0.000009 -0.000003 280.845358 -23.093752 -112.552543 -0.000004 0.000003 -12.362105 -44.183958 47.120686 198.533286 -0.000004 0.000001 -10.273200 2092.573689 166.964985 -176.224113 -2.899498 -1.655899 6.981697 24.718444 20.881273 0.984265 -4.387501 0.000001 0.000004 5.473477 -495.414985 762.696625 0.000006 -0.000005 -10.858106 153.668000 -176.617859 180.744414 -0.000003 0.000002 -12.079596 341.344195 -175.412181 139.026684 2.190798 0.073904 -2.522499 -442.033806 -155.558501 -116.861040 -0.000008 -0.000004 -20.305010 -860.704540 14.704820 71.338259 -0.000000 0.000007 -16.771702 1511.090616 -1.122691 44.759486 -2.029501 0.054297 -2.705202 -81.729805 -43.419929 -124.116476 0.000000 -0.000006 -20.030397 -183.701052 17.078511 -133.414044 0.000004 -0.000002 -17.032700 413.270868 67.031886 -108.901130
-5.160800 25.957504 43.579399 2935.119597 32.400433 6.455422 -0.698602 0.806099 5.350895 64.986292 -24.715781 25.025509 -0.000000 0.000003 4.409096 -1.389052 -2.076631 -0.123017 0.000002 0.000001 10.248300 -22.763366 -3.317617 4.758960 -0.000002 -0.000001 2.173893 -1.011599 -2.395858 -3.163126 2.100602 -0.520900 6.016105 -11.993075 9.305279 3.826457 5.536696 0.000007 -0.000003 281.136897 -22.533959 -112.875406 -0.000003 -0.000001 -12.362095 -44.007377 46.896325 198.380905 -0.000007 0.000002 -10.273201 2090.946684 166.860743 -175.643383 -2.899502 -1.655897 6.981706 25.116291 21.600019 0.540599 -4.387497 -0.000002 0.000004 4.555804 -496.071722 761.831268 -0.000000 -0.000005 -10.858104 153.020170 -176.216900 180.307691 -0.000014 0.000004 -12.079597 341.693792 -175.467929 139.007518 2.190796 0.073896 -2.522502 -442.042385 -155.537464 -116.820113 -0.000009 -0.000009 -20.305006 -860.743226 14.765571 71.610107 0.000002 0.000006 -16.771706 1511.048979 -0.984815 44.548212 -2.029504 0.054298 -2.705200 -81.618493 -43.660075 -124.394697 0.000001 -0.000004 -20.030394 -183.944412 16.953136 -133.135987 0.000000 -0.000001 -17.032700 412.204676 66.765625 -108.902360
-5.142801 25.961704 43.586700 2935.094244 32.353558 6.445735 -0.698596 0.806095 5.350892 64.767098 -24.973209 24.846015 -0.000002 -0.000000 4.409100 -1.164601 -2.187123 -0.129607 0.000000 0.000000 10.248302 -22.818217 -3.828306 4.824596 0.000002 0.000001 2.173898 -0.825642 -2.409696 -3.223721 2.100602 -0.520901 6.016102 -12.269100 9.479765 4.305546 5.536696 0.000006 0.000009 281.376473 -21.906788 -113.139112 -0.000002 -0.000000 -12.362101 -43.937593 46.686918 198.222075 -0.000003 0.000001 -10.273197 2089.665012 166.472679 -175.555068 -2.899498 -1.655900 6.981698 25.299746 22.050617 0.079249 -4.387503 -0.000006 0.000011 3.976031 -496.576609 761.008148 -0.000003 -0.000002 -10.858109 152.704001 -175.771394 179.778502 -0.000008 0.000008 -12.079596 341.703190 -175.565532 138.967439 2.190801 0.073892 -2.522504 -441.859090 -155.556834 -116.790443 -0.000007 -0.000008 -20.305006 -860.458871 15.047434 71.844998 0.000001 0.000003 -16.771704 1510.840576 -0.672734 44.208003 -2.029495 0.054294 -2.705201 -81.355176 -43.939799 -124.645461 0.000003 -0.000003 -20.030394 -184.054009 16.898807 -132.897654 -0.000005 -0.000003 -17.032696 411.759020 66.698498 -108.577024
-5.130001 25.966602 43.591999 2935.142328 32.274266 6.379201 -0.698600 0.806105 5.350899 64.708878 -25.019674 24.799307 0.000000 0.000001 4.409109 -1.226323 -2.215570 -0.132772 -0.000002 0.000001 10.248296 -22.965244 -4.489799 4.721966 -0.000001 -0.000001 2.173896 -0.583774 -2.462920 -3.281469 2.100601 -0.520899 6.016102 -12.171179 9.405150 4.199949 5.536698 0.000009 -0.000002 281.226591 -21.815062 -113.264925 -0.000008 0.000001 -12.362101 -44.214311 46.592344 198.526360 -0.000006 0.000001 -10.273192 2089.774295 166.620744 -175.653833 -2.899503 -1.655899 6.981699 24.928655 21.699014 0.246695 -4.387503 0.000003 0.000004 4.191559 -496.382632 760.726143 0.000004 0.000004 -10.858105 151.700414 -175.380803 179.254845 -0.000011 0.000001 -12.079596 342.589202 -175.556161 139.048704 2.190799 0.073903 -2.522500 -441.590745 -155.729433 -116.784309 -0.000008 -0.000005 -20.305006 -860.379914 14.976754 72.052997 0.000000 0.000005 -16.771706 1510.820578 -0.395754 44.029343 -2.029500 0.054299 -2.705192 -81.164565 -44.178931 -124.843058 0.000005 -0.000006 -20.030397 -184.080811 16.932017 -132.740642 -0.000001 -0.000001 -17.032700 411.261946 66.637586 -108.479134
